<svg width="111" height="32" viewBox="0 0 111 32" fill="none" xmlns="http://www.w3.org/2000/svg">
<path d="M44.34 9H46.8V23H44.5V13.02L40.24 20.06H39.96L35.7 13V23H33.4V9H35.88L40.1 16L44.34 9ZM57.7314 9H60.3514L55.4714 17.44V23H53.1714V17.44L48.2914 9H50.9114L54.3314 15.2L57.7314 9ZM66.857 9H72.357C74.277 9 75.8704 9.67333 77.137 11.02C78.417 12.3667 79.057 14.0267 79.057 16C79.057 17.96 78.417 19.62 77.137 20.98C75.8704 22.3267 74.277 23 72.357 23H66.857V9ZM69.157 20.8H72.357C73.677 20.8 74.7504 20.3467 75.577 19.44C76.417 18.5333 76.837 17.3867 76.837 16C76.837 14.6133 76.417 13.4667 75.577 12.56C74.7504 11.6533 73.677 11.2 72.357 11.2H69.157V20.8ZM92.8539 21.16C91.4539 22.56 89.7406 23.26 87.7139 23.26C85.6872 23.26 83.9672 22.56 82.5539 21.16C81.1539 19.7467 80.4539 18.0267 80.4539 16C80.4539 13.9733 81.1539 12.26 82.5539 10.86C83.9672 9.44667 85.6872 8.74 87.7139 8.74C89.7406 8.74 91.4539 9.44667 92.8539 10.86C94.2672 12.26 94.9739 13.9733 94.9739 16C94.9739 18.0267 94.2672 19.7467 92.8539 21.16ZM84.1739 19.6C85.1472 20.5467 86.3272 21.02 87.7139 21.02C89.1139 21.02 90.2872 20.5467 91.2339 19.6C92.1939 18.64 92.6739 17.44 92.6739 16C92.6739 14.56 92.1939 13.3667 91.2339 12.42C90.2872 11.46 89.1139 10.98 87.7139 10.98C86.3139 10.98 85.1339 11.46 84.1739 12.42C83.2272 13.3667 82.7539 14.56 82.7539 16C82.7539 17.4267 83.2272 18.6267 84.1739 19.6ZM103.692 23.26C101.585 23.26 99.8385 22.5667 98.4519 21.18C97.0652 19.7667 96.3719 18.04 96.3719 16C96.3719 13.9467 97.0652 12.2267 98.4519 10.84C99.8252 9.44 101.572 8.74 103.692 8.74C104.959 8.74 106.125 9.04 107.192 9.64C108.272 10.24 109.112 11.0533 109.712 12.08L107.712 13.24C107.339 12.5467 106.792 12 106.072 11.6C105.365 11.1867 104.572 10.98 103.692 10.98C102.212 10.98 100.999 11.4533 100.052 12.4C99.1319 13.3333 98.6719 14.5333 98.6719 16C98.6719 17.4667 99.1319 18.6667 100.052 19.6C100.999 20.5467 102.212 21.02 103.692 21.02C104.572 21.02 105.372 20.82 106.092 20.42C106.812 20.0067 107.352 19.4533 107.712 18.76L109.712 19.9C109.139 20.9133 108.305 21.7333 107.212 22.36C106.159 22.96 104.985 23.26 103.692 23.26Z" fill="#363636"/>
<path d="M2.76923 32H21.2308C22.7578 32 24 30.7384 24 29.1875V9.375H17.5385C16.0114 9.375 14.7692 8.11337 14.7692 6.5625V0H2.76923C1.24222 0 0 1.26163 0 2.8125V29.1875C0 30.7384 1.24222 32 2.76923 32ZM6.46154 13.1875H17.5385C18.0487 13.1875 18.4615 13.6068 18.4615 14.125C18.4615 14.6432 18.0487 15.0625 17.5385 15.0625H6.46154C5.95132 15.0625 5.53846 14.6432 5.53846 14.125C5.53846 13.6068 5.95132 13.1875 6.46154 13.1875ZM6.46154 16.9375H17.5385C18.0487 16.9375 18.4615 17.3568 18.4615 17.875C18.4615 18.3932 18.0487 18.8125 17.5385 18.8125H6.46154C5.95132 18.8125 5.53846 18.3932 5.53846 17.875C5.53846 17.3568 5.95132 16.9375 6.46154 16.9375ZM6.46154 20.6875H17.5385C18.0487 20.6875 18.4615 21.1068 18.4615 21.625C18.4615 22.1432 18.0487 22.5625 17.5385 22.5625H6.46154C5.95132 22.5625 5.53846 22.1432 5.53846 21.625C5.53846 21.1068 5.95132 20.6875 6.46154 20.6875ZM6.46154 24.4375H13.8462C14.3564 24.4375 14.7692 24.8568 14.7692 25.375C14.7692 25.8932 14.3564 26.3125 13.8462 26.3125H6.46154C5.95132 26.3125 5.53846 25.8932 5.53846 25.375C5.53846 24.8568 5.95132 24.4375 6.46154 24.4375Z" fill="#588CBB"/>
<path d="M17.5383 7.5H23.459L16.6152 0.549316V6.5625C16.6152 7.07975 17.029 7.5 17.5383 7.5Z" fill="black"/>
</svg>
